<svg xmlns="http://www.w3.org/2000/svg" version="1.1" xmlnsXlink="http://www.w3.org/1999/xlink" xmlnsSvgjs="http://svgjs.dev/svgjs" width="1000" height="1000" viewBox="0 0 1000 1000"><rect width="1000" height="1000" fill="#ffffff"></rect><g transform="matrix(0.7,0,0,0.7,149.57575757575756,415.29988075757433)"><svg viewBox="0 0 396 96" data-background-color="#ffffff" preserveAspectRatio="xMidYMid meet" height="242" width="1000" xmlns="http://www.w3.org/2000/svg" xmlnsXlink="http://www.w3.org/1999/xlink"><g id="tight-bounds" transform="matrix(1,0,0,1,0.2400000000000091,0.00006757540063517808)"><svg viewBox="0 0 395.52 95.9998648491987" height="95.9998648491987" width="395.52"><g><svg viewBox="0 0 395.52 95.9998648491987" height="95.9998648491987" width="395.52"><g><svg viewBox="0 0 552.8508498321783 134.18691056243367" height="95.9998648491987" width="395.52"><g transform="matrix(1,0,0,1,157.33084983217822,18.545368970640254)"><svg viewBox="0 0 395.52 97.09617262115316" height="97.09617262115316" width="395.52"><g id="textblocktransform"><svg viewBox="0 0 395.52 97.09617262115316" height="97.09617262115316" width="395.52" id="textblock"><g><svg viewBox="0 0 395.52 97.09617262115316" height="97.09617262115316" width="395.52"><g transform="matrix(1,0,0,1,0,0)"><svg width="395.52" viewBox="1.5 -34.25 141.34 34.7" height="97.09617262115316" data-palette-color="#061826"><path d="M19.1-3.75L19.95-3.75Q21.65-3.75 22.88-4.45 24.1-5.15 24.95-6.65 25.8-8.15 26.45-10.55L26.45-10.55Q28.1-10.4 29.5-9.93 30.9-9.45 31.55-8.85L31.55-8.85Q31-7.15 30.6-4.75 30.2-2.35 30 0.1L30 0.1Q28.55 0.05 26.28 0.05 24 0.05 21.53 0.03 19.05 0 16.95 0L16.95 0Q15.65 0 13.43 0.03 11.2 0.05 8.78 0.08 6.35 0.1 4.35 0.13 2.35 0.15 1.5 0.15L1.5 0.15Q1.5-0.95 1.6-2 1.7-3.05 1.9-3.75L1.9-3.75Q3.25-3.85 3.98-4.28 4.7-4.7 4.95-5.88 5.2-7.05 5.2-9.35L5.2-9.35 5.2-24.55Q5.2-26.8 4.95-27.9 4.7-29 3.98-29.43 3.25-29.85 1.85-30.05L1.85-30.05Q1.65-30.8 1.58-31.98 1.5-33.15 1.5-33.95L1.5-33.95Q3.1-33.9 4.35-33.88 5.6-33.85 6.98-33.83 8.35-33.8 10.2-33.8L10.2-33.8Q11.4-33.8 13.05-33.83 14.7-33.85 16.3-33.88 17.9-33.9 18.9-33.95L18.9-33.95Q18.9-32.95 18.85-31.9 18.8-30.85 18.45-30.05L18.45-30.05Q17.1-29.9 16.4-29.48 15.7-29.05 15.45-27.93 15.2-26.8 15.2-24.55L15.2-24.55 15.2-9.6Q15.2-7.3 15.55-6.03 15.9-4.75 16.75-4.25 17.6-3.75 19.1-3.75L19.1-3.75ZM51.05 0.45L51.05 0.45Q45.65 0.45 41.8-1.75 37.95-3.95 35.87-7.88 33.8-11.8 33.8-17.05L33.8-17.05Q33.8-21.05 35.07-24.23 36.35-27.4 38.65-29.65 40.95-31.9 44.1-33.08 47.25-34.25 51.05-34.25L51.05-34.25Q56.3-34.25 60.17-32.2 64.05-30.15 66.2-26.45 68.35-22.75 68.35-17.7L68.35-17.7Q68.35-13.65 67.15-10.33 65.95-7 63.67-4.6 61.4-2.2 58.2-0.88 55 0.45 51.05 0.45ZM51.65-3.45L51.65-3.45Q53.75-3.45 55.17-5.08 56.6-6.7 57.35-9.65 58.1-12.6 58.1-16.65L58.1-16.65Q58.1-20.5 57.17-23.63 56.25-26.75 54.52-28.63 52.8-30.5 50.4-30.5L50.4-30.5Q48.4-30.5 46.97-29.08 45.55-27.65 44.8-24.93 44.05-22.2 44.05-18.25L44.05-18.25Q44.05-15.25 44.5-12.58 44.95-9.9 45.87-7.85 46.8-5.8 48.22-4.63 49.65-3.45 51.65-3.45ZM89.1 0.45L89.1 0.45Q83.7 0.45 79.85-1.75 76-3.95 73.92-7.88 71.85-11.8 71.85-17.05L71.85-17.05Q71.85-21.05 73.12-24.23 74.4-27.4 76.7-29.65 79-31.9 82.15-33.08 85.3-34.25 89.1-34.25L89.1-34.25Q94.35-34.25 98.22-32.2 102.1-30.15 104.25-26.45 106.4-22.75 106.4-17.7L106.4-17.7Q106.4-13.65 105.2-10.33 104-7 101.72-4.6 99.45-2.2 96.25-0.88 93.05 0.45 89.1 0.45ZM89.7-3.45L89.7-3.45Q91.8-3.45 93.22-5.08 94.65-6.7 95.4-9.65 96.15-12.6 96.15-16.65L96.15-16.65Q96.15-20.5 95.22-23.63 94.3-26.75 92.57-28.63 90.85-30.5 88.45-30.5L88.45-30.5Q86.45-30.5 85.02-29.08 83.6-27.65 82.85-24.93 82.1-22.2 82.1-18.25L82.1-18.25Q82.1-15.25 82.55-12.58 83-9.9 83.92-7.85 84.85-5.8 86.27-4.63 87.7-3.45 89.7-3.45ZM131.99-30.05L120.89-30.05Q119.09-30.05 117.87-29.35 116.64-28.65 115.87-27.25 115.09-25.85 114.54-23.65L114.54-23.65Q113.14-23.65 111.79-23.78 110.44-23.9 109.39-24.4L109.39-24.4Q109.94-26.45 110.29-29.15 110.64-31.85 110.64-33.95L110.64-33.95Q112.74-33.9 114.79-33.85 116.84-33.8 119.54-33.8 122.24-33.8 126.29-33.8L126.29-33.8Q129.89-33.8 132.57-33.83 135.24-33.85 137.42-33.88 139.59-33.9 141.64-33.95L141.64-33.95Q141.64-31.85 141.97-29.28 142.29-26.7 142.84-24.45L142.84-24.45Q141.84-24.05 140.52-23.85 139.19-23.65 137.64-23.65L137.64-23.65Q136.99-27.05 135.77-28.55 134.54-30.05 131.99-30.05L131.99-30.05ZM120.99-9.35L120.99-32.05 130.99-32.05 130.99-9.35Q130.99-7.05 131.37-5.88 131.74-4.7 132.79-4.28 133.84-3.85 135.89-3.75L135.89-3.75Q136.14-3.1 136.27-1.98 136.39-0.85 136.39 0.15L136.39 0.15Q134.99 0.05 132.42 0.03 129.84 0 126.64 0L126.64 0Q124.54 0 122.27 0.03 119.99 0.05 118.09 0.08 116.19 0.1 115.09 0.15L115.09 0.15Q115.09-0.75 115.29-1.9 115.49-3.05 115.69-3.75L115.69-3.75Q117.79-3.85 118.94-4.28 120.09-4.7 120.54-5.88 120.99-7.05 120.99-9.35L120.99-9.35Z" opacity="1" transform="matrix(1,0,0,1,0,0)" fill="#061826" class="wordmark-text-0" data-fill-palette-color="primary" id="text-0"></path></svg></g></svg></g></svg></g></svg></g><g><svg viewBox="0 0 134.40877378446686 134.18691056243367" height="134.18691056243367" width="134.40877378446686"><g><svg xmlns="http://www.w3.org/2000/svg" xmlnsXlink="http://www.w3.org/1999/xlink" version="1.1" x="0" y="0" viewBox="0 0.2049999999999983 99.96000000000001 99.795" enable-background="new 0 0 100 100" xmlSpace="preserve" height="134.18691056243367" width="134.40877378446686" class="icon-icon-0" data-fill-palette-color="accent" id="icon-0"><g fill="#3d9970" data-fill-palette-color="accent"><circle cx="49.98" cy="50.02" r="8.3" fill="#3d9970" data-fill-palette-color="accent"></circle><path d="M57.492 7.246c0 3.889-3.152 26.404-7.041 26.404-3.888 0-7.041-22.516-7.041-26.404s3.153-7.041 7.041-7.041C54.34 0.205 57.492 3.357 57.492 7.246z" fill="#3d9970" data-fill-palette-color="accent"></path><path d="M43.41 92.958c0-3.889 3.153-26.403 7.041-26.403 3.889 0 7.041 22.515 7.041 26.403S54.34 100 50.451 100C46.563 100 43.41 96.847 43.41 92.958z" fill="#3d9970" data-fill-palette-color="accent"></path><path d="M85.757 24.872c-2.791 2.707-21.142 16.131-23.849 13.341-2.708-2.79 11.248-20.736 14.038-23.445 2.79-2.707 7.249-2.643 9.956 0.148C88.612 17.705 88.546 22.163 85.757 24.872z" fill="#3d9970" data-fill-palette-color="accent"></path><path d="M14.773 75.181c2.79-2.708 21.14-16.129 23.849-13.342 2.707 2.792-11.249 20.736-14.039 23.445-2.789 2.71-7.247 2.645-9.955-0.146C11.919 82.348 11.985 77.892 14.773 75.181z" fill="#3d9970" data-fill-palette-color="accent"></path><path d="M74.163 86.315c-2.63-2.866-15.548-21.574-12.685-24.207C64.342 59.479 81.9 73.92 84.53 76.785c2.633 2.861 2.445 7.316-0.416 9.947C81.25 89.364 76.797 89.177 74.163 86.315z" fill="#3d9970" data-fill-palette-color="accent"></path><path d="M24.717 14.668c2.716 2.781 16.189 21.094 13.407 23.809-2.781 2.717-20.767-11.188-23.483-13.973-2.717-2.779-2.664-7.239 0.12-9.957C17.542 11.832 22.002 11.885 24.717 14.668z" fill="#3d9970" data-fill-palette-color="accent"></path><path d="M7.041 42.756c3.89 0 26.403 3.154 26.403 7.042 0 3.889-22.514 7.042-26.403 7.042C3.153 56.84 0 53.687 0 49.798 0 45.91 3.153 42.756 7.041 42.756z" fill="#3d9970" data-fill-palette-color="accent"></path><path d="M92.918 57.059c-3.889 0-26.402-3.15-26.402-7.039s22.514-7.041 26.402-7.041c3.89 0 7.042 3.152 7.042 7.041S96.808 57.059 92.918 57.059z" fill="#3d9970" data-fill-palette-color="accent"></path></g></svg></g></svg></g></svg></g></svg></g><defs></defs></svg><rect width="395.52" height="95.9998648491987" fill="none" stroke="none" visibility="hidden"></rect></g></svg></g></svg>